# xmcd
#
# Track frame offsets:
#	150
#	12187
#	22312
#	35035
#	45125
#	58560
#	72297
#	84292
#	103770
#	118392
#	132682
#	146035
#	159335
#	171945
#	185940
#	199647
#	212260
#	225445
#	239887
#	254772
#
# Disc length: 3590
#
# Revision: 2
# Processed by: cddbd v1.5.1PL0 Copyright (c) Steve Scherf et al.
# Submitted via: ExactAudioCopy v0.95a5
# Normalized: r1:DSETVAR1,TDELIM( - )
#
DISCID=2a0e0414
DTITLE=Various Artist - Tresors Blues
DYEAR=1900
DGENRE=
TTITLE0=Jimmy Reed - Bright Lights, Big City
TTITLE1=John Lee Hooker - Dimples
TTITLE2=Elmore James - Shake Your Moneymaker
TTITLE3=Jimmy Witherspoon - Kansas City
TTITLE4=Lightin' Hokins - Rolling And Rolling
TTITLE5=Howlin' Wolf - Well That's Allright
TTITLE6=Big Joe Turner - Playboy Blues
TTITLE7=Memphis Slim - The Blues Is Everywhere
TTITLE8=Jimmy McCracklin - Bad Luck and Trouble
TTITLE9=Champion Jack Dupree - Baby's Comin' Home
TTITLE10=Homesick James - My Baby's Gone
TTITLE11=Arthur Crudupp - Hey Mama, Everything's Allright
TTITLE12=Lonnie Johnson - Chicago Blues
TTITLE13=Robert Jr Lockwood - Little Boy Blue
TTITLE14=Johnny Shines - Delta Pine Blues
TTITLE15=Big Joe Williams - Baby Please Don't Go
TTITLE16=Eddie Boyd - Blue Monday Blues
TTITLE17=Roosevelt Sykes - Walkin' and Drinkin'
TTITLE18=Washboard Sam - Ramblin' With That Woman
TTITLE19=Sunnyland Slim - Farewell Little Girl
EXTD=
EXTT0=
EXTT1=
EXTT2=
EXTT3=
EXTT4=
EXTT5=
EXTT6=
EXTT7=
EXTT8=
EXTT9=
EXTT10=
EXTT11=
EXTT12=
EXTT13=
EXTT14=
EXTT15=
EXTT16=
EXTT17=
EXTT18=
EXTT19=
PLAYORDER=
